<svg width="150.000488" height="150.000000" viewBox="0 0 150 150" fill="none" xmlns="http://www.w3.org/2000/svg" xmlns:xlink="http://www.w3.org/1999/xlink">
	<defs/>
	<rect id="Rectangle 25" x="3.000000" y="92.000122" width="11.993375" height="4.997581" transform="rotate(-43.1407 3.000000 92.000122)" fill="#C0E1F2" fill-opacity="1.000000"/>
	<path id="Subtract" d="M13.45 90.65C15.37 88.69 16.4 87.79 19.55 86.99C22.15 86.32 25.23 87.38 28.44 89.1L31.91 80.86C27.69 78.59 23.75 77.03 19.93 77.59C19.89 77.6 19.85 77.61 19.81 77.61C18.35 77.84 16.92 78.28 15.52 78.93C13.57 79.83 10.9 81.9 8.08 84.52C7.52 85.03 7.48 85.9 7.97 86.48L11.42 90.58C11.95 91.21 12.88 91.24 13.45 90.65Z" fill="#5E82ED" fill-opacity="1.000000" fill-rule="evenodd"/>
	<path id="Rectangle 20" d="M29.59 56.37L38.27 54.57L46.66 95.17L37.98 96.96C26.76 99.28 15.8 92.07 13.48 80.86C11.17 69.65 18.38 58.68 29.59 56.37Z" fill="#525EE1" fill-opacity="1.000000" fill-rule="evenodd"/>
	<ellipse id="Oval 12" rx="6.993027" ry="9.499620" transform="matrix(0.980493 -0.196552 0.196161 0.980572 24.7031 77.9401)" fill="#FFFFFF" fill-opacity="1.000000"/>
	<path id="Vector 32" d="M22.37 73.33L25.53 72.21L24.27 78.73L28.79 77.13L25.26 86.56L25.69 79.86L22.08 81.14L22.37 73.33Z" fill="#E84F30" fill-opacity="1.000000" fill-rule="evenodd"/>
	<path id="Rectangle 19" d="M26.2 62.13C24.97 56.16 28.81 50.32 34.77 49.09C40.74 47.86 45.25 45.28 47.81 57.67L53.91 87.19C56.2 98.26 54.56 98.33 45.34 100.23C39.37 101.47 33.54 97.63 32.3 91.66L26.2 62.13Z" fill="#5E82ED" fill-opacity="1.000000" fill-rule="evenodd"/>
	<path id="Rectangle 19" d="M30.41 61.19C29.17 55.22 33.01 49.39 38.97 48.15C44.94 46.92 50.77 50.76 52.01 56.73L58.11 86.26C59.34 92.22 55.51 98.06 49.54 99.3C43.57 100.53 37.74 96.69 36.51 90.72L30.41 61.19Z" fill="#6FA8F7" fill-opacity="1.000000" fill-rule="evenodd"/>
	<g opacity="0.100000">
		<path id="Vector 30" d="M41.26 62.64L32.11 69.37L33.46 76.91L42.33 67.76L41.26 62.64Z" fill="#1F212B" fill-opacity="1.000000" fill-rule="evenodd"/>
	</g>
	<g opacity="0.100000">
		<path id="Vector 31" d="M45.29 79.87L36.41 89.83C36.99 93.6 37.83 95.03 40.45 97.1L46.37 84.99L45.29 79.87Z" fill="#1F212B" fill-opacity="1.000000" fill-rule="evenodd"/>
	</g>
	<path id="Rectangle 21" d="M42.28 62.31L59.04 58.85C60.5 58.55 61.92 59.48 62.22 60.94C62.52 62.4 61.59 63.82 60.13 64.12L43.13 67.63C42.56 67.75 41.96 67.58 41.66 67.08C41.11 66.16 40.8 64.94 40.9 63.7C40.96 62.98 41.57 62.46 42.28 62.31Z" fill="#C0E1F2" fill-opacity="1.000000" fill-rule="evenodd"/>
	<g opacity="0.600000">
		<path id="Rectangle 21" d="M43.27 63.69L53.8 61.42C54.13 61.35 54.45 61.56 54.52 61.9C54.59 62.23 54.38 62.55 54.04 62.62L43.51 64.89C43.18 64.96 42.86 64.74 42.79 64.41C42.72 64.08 42.93 63.76 43.27 63.69Z" fill="#FFFFFF" fill-opacity="1.000000" fill-rule="evenodd"/>
	</g>
	<g opacity="0.600000">
		<path id="Rectangle 24" d="M56.39 60.85L58.85 60.37C59.18 60.31 59.5 60.52 59.57 60.85C59.64 61.18 59.43 61.51 59.09 61.58L56.63 62.05C56.3 62.12 55.98 61.91 55.91 61.58C55.84 61.24 56.05 60.92 56.39 60.85Z" fill="#FFFFFF" fill-opacity="1.000000" fill-rule="evenodd"/>
	</g>
	<path id="Rectangle 22" d="M46.21 79.64L62.63 76.25C64.09 75.95 65.51 76.88 65.81 78.34C66.11 79.79 65.18 81.22 63.72 81.52L46.97 84.98C46.28 85.12 45.55 84.81 45.26 84.16C44.83 83.2 44.68 82.4 44.66 81.47C44.65 80.57 45.33 79.82 46.21 79.64Z" fill="#C0E1F2" fill-opacity="1.000000" fill-rule="evenodd"/>
	<g opacity="0.600000">
		<path id="Rectangle 23" d="M50.74 80.38L62.88 77.84C63.22 77.77 63.54 77.99 63.61 78.32C63.68 78.65 63.46 78.98 63.13 79.04L50.99 81.58C50.66 81.65 50.33 81.44 50.26 81.1C50.19 80.77 50.41 80.45 50.74 80.38Z" fill="#FFFFFF" fill-opacity="1.000000" fill-rule="evenodd"/>
	</g>
	<g opacity="0.600000">
		<path id="Rectangle 24" d="M46.16 81.31L48.62 80.83C48.95 80.77 49.28 80.98 49.35 81.31C49.41 81.64 49.2 81.97 48.87 82.04L46.41 82.51C46.08 82.58 45.75 82.37 45.68 82.04C45.62 81.7 45.83 81.38 46.16 81.31Z" fill="#FFFFFF" fill-opacity="1.000000" fill-rule="evenodd"/>
	</g>
	<rect id="Rectangle 25" x="139.854980" y="80.000122" width="11.991096" height="4.998530" transform="rotate(32.2159 139.854980 80.000122)" fill="#C0E1F2" fill-opacity="1.000000"/>
	<path id="Subtract" d="M139.41 87.14C137.13 85.61 135.94 84.94 132.7 84.79C130.01 84.67 127.21 86.34 124.43 88.69L119.34 81.32C123.01 78.24 126.56 75.9 130.4 75.68C130.44 75.68 130.48 75.67 130.52 75.67C132 75.6 133.49 75.74 134.99 76.08C137.09 76.57 140.13 78.05 143.42 80.03C144.07 80.42 144.29 81.27 143.93 81.93L141.38 86.66C141 87.38 140.09 87.6 139.41 87.14Z" fill="#5E82ED" fill-opacity="1.000000" fill-rule="evenodd"/>
	<path id="Rectangle 20" d="M119.64 56.37L110.96 54.57L102.58 95.17L111.26 96.97C122.47 99.28 133.43 92.08 135.74 80.86C138.06 69.65 130.85 58.69 119.64 56.37Z" fill="#525EE1" fill-opacity="1.000000" fill-rule="evenodd"/>
	<path id="Rectangle 19" d="M124.89 62.13C126.12 56.16 122.28 50.33 116.32 49.09C110.35 47.86 105.84 45.28 103.29 57.67L97.19 87.19C94.91 98.27 96.54 98.33 105.76 100.24C111.73 101.47 117.56 97.63 118.79 91.66L124.89 62.13Z" fill="#5E82ED" fill-opacity="1.000000" fill-rule="evenodd"/>
	<path id="Rectangle 19" d="M120.69 61.2C121.92 55.23 118.08 49.39 112.12 48.15C106.15 46.92 100.32 50.76 99.08 56.73L92.99 86.26C91.76 92.22 95.6 98.06 101.56 99.3C107.53 100.53 113.36 96.69 114.59 90.72L120.69 61.2Z" fill="#6FA8F7" fill-opacity="1.000000" fill-rule="evenodd"/>
	<path id="Rectangle 21" d="M111.15 64.19C111.45 62.71 110.5 61.26 109.01 60.95C107.53 60.64 106.08 61.6 105.77 63.08L105.09 66.4C104.78 67.88 105.74 69.33 107.22 69.64C108.7 69.95 110.16 68.99 110.46 67.51L111.15 64.19Z" fill="#4A3FA7" fill-opacity="1.000000" fill-rule="evenodd"/>
	<path id="Subtract" d="M110.33 61.63C109.97 61.3 109.52 61.06 109.02 60.95C107.53 60.64 106.08 61.6 105.77 63.08L105.09 66.39C104.78 67.88 105.74 69.33 107.22 69.64C106.54 69.01 106.27 68.06 106.47 67.08L107.15 63.77C107.45 62.31 108.87 61.36 110.33 61.63Z" fill="#525EE1" fill-opacity="1.000000" fill-rule="evenodd"/>
	<path id="Rectangle 22" d="M107.89 81.86C108.19 80.39 107.25 78.95 105.78 78.65C104.31 78.35 102.88 79.29 102.57 80.76L101.87 84.14C101.57 85.61 102.52 87.04 103.98 87.35C105.45 87.65 106.89 86.71 107.19 85.24L107.89 81.86Z" fill="#4A3FA7" fill-opacity="1.000000" fill-rule="evenodd"/>
	<path id="Subtract" d="M107.13 79.37C106.77 79.02 106.31 78.76 105.78 78.65C104.31 78.35 102.88 79.29 102.57 80.76L101.87 84.14C101.57 85.61 102.52 87.04 103.98 87.35C104.03 87.36 104.07 87.37 104.12 87.37C103.48 86.75 103.16 85.82 103.36 84.88L104.06 81.5C104.35 80.08 105.71 79.15 107.13 79.37Z" fill="#525EE1" fill-opacity="1.000000" fill-rule="evenodd"/>
	<path id="Vector 26" d="M65.47 51.61L51.48 39.1L53.09 32.08L65.47 51.61Z" fill="#E84F30" fill-opacity="1.000000" fill-rule="evenodd"/>
	<path id="Vector 29" d="M91.03 50.45L97.89 34.92L106.66 32.3L91.03 50.45Z" fill="#E84F30" fill-opacity="1.000000" fill-rule="evenodd"/>
	<path id="Vector 27" d="M74.04 47.58L66.83 21.56L71.62 15.43L74.04 47.58Z" fill="#E84F30" fill-opacity="1.000000" fill-rule="evenodd"/>
	<path id="path" d="M69.67 57.5L68.33 57.44L68.3 57.44C68.22 57.45 68.16 57.49 68.13 57.56C68.09 57.63 68.1 57.7 68.15 57.77L68.92 58.88L68.46 60.14L68.45 60.16C68.43 60.24 68.45 60.31 68.51 60.37C68.57 60.42 68.64 60.44 68.71 60.41L70 60.02L71.06 60.85L71.08 60.87C71.15 60.91 71.22 60.91 71.29 60.87C71.36 60.84 71.4 60.77 71.4 60.69L71.42 59.34L72.54 58.6C72.6 58.54 72.65 58.46 72.63 58.38C72.62 58.3 72.57 58.25 72.49 58.22L71.22 57.79L70.85 56.49C70.83 56.4 70.78 56.35 70.69 56.34C70.6 56.32 70.54 56.35 70.48 56.42L69.67 57.5Z" fill="#E84F30" fill-opacity="1.000000" fill-rule="nonzero"/>
	<path id="path" d="M86.28 60.28L83.65 58.31L83.6 58.28C83.43 58.18 83.26 58.18 83.09 58.28C82.92 58.38 82.83 58.53 82.83 58.72L82.88 62.02L80.19 63.92L80.15 63.95C80 64.09 79.95 64.25 79.99 64.44C80.03 64.64 80.15 64.76 80.34 64.82L83.48 65.8L84.45 68.94L84.47 68.99C84.55 69.18 84.68 69.28 84.88 69.3C85.08 69.32 85.24 69.25 85.35 69.09L87.25 66.4L90.54 66.44C90.74 66.42 90.94 66.32 91.02 66.14C91.09 65.96 91.08 65.79 90.96 65.63L88.99 62.99L90.05 59.87C90.11 59.67 90.07 59.5 89.92 59.35C89.77 59.2 89.6 59.16 89.4 59.22L86.28 60.28Z" fill="#E84F30" fill-opacity="1.000000" fill-rule="nonzero"/>
	<path id="path" d="M74.97 76.5L73.42 75.34L73.39 75.32C73.29 75.26 73.19 75.26 73.09 75.32C72.99 75.38 72.94 75.47 72.94 75.58L72.96 77.53L71.38 78.65L71.35 78.67C71.27 78.75 71.23 78.84 71.26 78.96C71.28 79.07 71.35 79.15 71.46 79.18L73.32 79.76L73.89 81.61L73.9 81.64C73.95 81.75 74.03 81.81 74.15 81.82C74.26 81.83 74.36 81.79 74.42 81.7L75.54 80.11L77.49 80.14C77.6 80.13 77.72 80.07 77.77 79.96C77.81 79.85 77.8 79.75 77.73 79.66L76.57 78.1L77.19 76.26C77.23 76.14 77.21 76.04 77.12 75.95C77.03 75.86 76.93 75.84 76.81 75.88L74.97 76.5Z" fill="#E84F30" fill-opacity="1.000000" fill-rule="nonzero"/>
	<path id="path" d="M84.66 88.14L83.71 87.42L83.69 87.41C83.63 87.37 83.56 87.37 83.5 87.41C83.44 87.45 83.41 87.5 83.41 87.57L83.43 88.77L82.45 89.46L82.44 89.47C82.38 89.52 82.36 89.58 82.38 89.65C82.39 89.72 82.43 89.76 82.5 89.79L83.64 90.14L84 91.28L84 91.3C84.03 91.37 84.08 91.4 84.15 91.41C84.23 91.42 84.28 91.39 84.32 91.33L85.01 90.36L86.21 90.37C86.28 90.37 86.35 90.33 86.38 90.26C86.41 90.2 86.4 90.14 86.36 90.08L85.64 89.12L86.03 87.99C86.05 87.92 86.04 87.85 85.98 87.8C85.93 87.74 85.87 87.73 85.79 87.75L84.66 88.14Z" fill="#E84F30" fill-opacity="1.000000" fill-rule="nonzero"/>
	<path id="path" d="M69.41 93.77L68.46 93.05L68.44 93.04C68.38 93 68.31 93 68.25 93.04C68.19 93.07 68.16 93.13 68.16 93.2L68.18 94.4L67.2 95.09L67.19 95.1C67.13 95.15 67.11 95.21 67.13 95.28C67.14 95.35 67.18 95.39 67.25 95.42L68.39 95.77L68.75 96.91L68.75 96.93C68.78 97 68.83 97.03 68.9 97.04C68.98 97.05 69.03 97.02 69.07 96.96L69.76 95.99L70.96 96C71.03 96 71.1 95.96 71.13 95.89C71.16 95.83 71.15 95.76 71.11 95.71L70.4 94.75L70.78 93.62C70.8 93.54 70.79 93.48 70.73 93.43C70.68 93.37 70.62 93.36 70.54 93.38L69.41 93.77Z" fill="#E84F30" fill-opacity="1.000000" fill-rule="nonzero"/>
	<path id="Vector 28" d="M84.62 46.45L88.16 33.68L85.8 30.66L84.62 46.45Z" fill="#E84F30" fill-opacity="1.000000" fill-rule="evenodd"/>
	<path id="Vector 26" d="M89.14 96.29L103.13 109.9L101.53 117.54L89.14 96.29Z" fill="#E84F30" fill-opacity="1.000000" fill-rule="evenodd"/>
	<path id="Vector 29" d="M63.58 97.55L56.72 114.45L47.95 117.3L63.58 97.55Z" fill="#E84F30" fill-opacity="1.000000" fill-rule="evenodd"/>
	<path id="Vector 27" d="M80.57 100.67L87.78 128.99L82.99 135.66L80.57 100.67Z" fill="#E84F30" fill-opacity="1.000000" fill-rule="evenodd"/>
	<path id="Vector 28" d="M69.99 101.9L66.45 115.8L68.81 119.08L69.99 101.9Z" fill="#E84F30" fill-opacity="1.000000" fill-rule="evenodd"/>
</svg>
