<svg width="16.000000" height="16.000000" viewBox="0 0 16 16" fill="none" xmlns="http://www.w3.org/2000/svg" xmlns:xlink="http://www.w3.org/1999/xlink">
  <desc>
      Created with Pixso.
  </desc>
  <defs>
    <clipPath id="clip2257_55740">
      <rect id="book-download" width="16.000000" height="16.000000" fill="white" fill-opacity="0"/>
    </clipPath>
  </defs>
  <g clip-path="url(#clip2257_55740)">
    <path id="path" d="M7.97 12.68L8 12.66C8.37 12.66 8.66 12.96 8.66 13.33C8.66 13.7 8.37 13.99 8 13.99L7.97 13.97L7.97 12.68ZM12.64 5.98L12.66 6C12.66 6.37 12.37 6.66 12 6.66C11.62 6.66 11.33 6.37 11.33 6L11.35 5.98L12.64 5.98Z" fill="#000000" fill-opacity="0" fill-rule="nonzero"/>
    <path id="path" d="M8 13.33L4 13.33C3.63 13.33 3.31 13.2 3.05 12.94C2.79 12.68 2.66 12.36 2.66 12L2.66 4C2.66 3.63 2.79 3.31 3.05 3.05C3.31 2.79 3.63 2.66 4 2.66L12 2.66L12 6" stroke="#78909C" stroke-opacity="1.000000" stroke-width="1.330000" stroke-linejoin="round" stroke-linecap="round"/>
    <path id="path" d="M8.64 10.02L8.66 10C9.03 10 9.33 10.29 9.33 10.66C9.33 11.03 9.03 11.33 8.66 11.33L8.64 11.31L8.64 10.02ZM3.31 11.98L3.33 12C3.33 12.37 3.03 12.66 2.66 12.66C2.29 12.66 2 12.37 2 12L2.02 11.98L3.31 11.98Z" fill="#000000" fill-opacity="0" fill-rule="nonzero"/>
    <path id="path" d="M8.66 10.66L4 10.66C3.63 10.66 3.31 10.79 3.05 11.05C2.79 11.31 2.66 11.63 2.66 12" stroke="#78909C" stroke-opacity="1.000000" stroke-width="1.330000" stroke-linejoin="round" stroke-linecap="round"/>
    <path id="Union" d="M12.6646 8.66699L12.6646 13.0615L13.5293 12.1963C13.793 11.9336 14.2065 11.9336 14.4702 12.1963C14.7334 12.46 14.7334 12.874 14.4702 13.1367L12.5122 15.0947C12.4531 15.166 12.3799 15.2236 12.2959 15.2646C12.2827 15.2715 12.269 15.2773 12.2549 15.2832C12.1768 15.3154 12.0918 15.332 11.9995 15.332C11.9077 15.332 11.8228 15.3154 11.7446 15.2832C11.7305 15.2773 11.7168 15.2715 11.7036 15.2646C11.6196 15.2236 11.5464 15.166 11.4873 15.0947L9.5293 13.1367C9.26611 12.874 9.26611 12.46 9.5293 12.1963C9.79297 11.9336 10.2065 11.9336 10.4702 12.1963L11.335 13.0615L11.335 8.66699C11.335 8.29492 11.6274 8.00195 11.9995 8.00195C12.3721 8.00195 12.6646 8.29492 12.6646 8.66699Z" clip-rule="evenodd" fill="#78909C" fill-opacity="1.000000" fill-rule="evenodd"/>
  </g>
</svg>