<svg width="240.000000" height="240.000000" viewBox="0 0 240 240" fill="none" xmlns="http://www.w3.org/2000/svg" xmlns:xlink="http://www.w3.org/1999/xlink">
	<path id="Accent" d="M58.57 166.32C58.57 164.06 59.57 162.04 61.16 160.68C58.06 159.89 54.64 160.67 52.15 163.04L43.46 171.34L34.84 162.31C31.18 158.48 25.11 158.34 21.27 162C17.44 165.66 17.29 171.73 20.96 175.57L29.58 184.6L20.91 192.87C17.07 196.53 16.93 202.61 20.6 206.45C24.26 210.28 30.33 210.42 34.17 206.76L42.84 198.48L50.79 206.81C54.45 210.65 60.53 210.79 64.36 207.13C68.2 203.47 68.34 197.39 64.68 193.55L56.72 185.22L65.41 176.93C66.44 175.95 67.2 174.8 67.69 173.57C67.15 173.69 66.59 173.76 66.01 173.76C61.9 173.76 58.57 170.43 58.57 166.32Z" fill="#FA5F05" fill-opacity="1.000000" fill-rule="evenodd"/>
	<path id="Hand" d="M207.79 92.89C209.61 89.45 212.82 85.56 217.42 81.2C218 80.64 218.9 80.67 219.45 81.25C220.01 81.84 219.98 82.74 219.4 83.29C215.03 87.43 212.01 91.08 210.33 94.24C209.07 96.61 207.38 101.38 205.24 108.55C204.63 110.58 204.15 112.17 203.8 113.32C201.08 122.28 198.34 128.91 195.57 133.2C192.65 137.73 188.46 141.68 182.99 145.06C177.6 148.39 173.42 151.23 170.44 153.56C167.35 155.98 164.17 158.93 160.89 162.43C160.05 163.32 158.88 164.64 157.35 166.4C154.27 169.95 152.01 172.15 150.59 172.99C147.83 174.61 145.37 174.08 143.22 171.4C140.68 168.22 139.64 164.9 140.1 161.42C140.56 157.92 142.61 153.95 146.24 149.52C148.28 147.05 151.66 143.78 156.41 139.73C160.91 135.88 163.01 133.75 162.71 133.33C162.16 132.62 161.64 132.27 161.17 132.29C160.58 132.3 159.02 132.77 156.49 133.69C154.42 134.44 152.67 135.05 151.25 135.52C146.25 137.18 137.28 140.72 124.35 146.16C110.98 151.78 100.84 156.3 93.93 159.72C88.17 162.57 82.86 165.59 77.99 168.78C74.94 170.79 72.26 172.41 69.96 173.66C67.56 174.97 65.27 175.36 63.09 174.84C61.96 174.57 60.99 174.1 60.2 173.42C59.48 172.82 58.91 172.05 58.47 171.12C57.54 169.15 57.51 166.97 58.36 164.57C59.27 162.04 61.07 159.67 63.77 157.44C68.71 153.37 73.44 149.59 77.96 146.11C80.33 144.29 82.96 142.68 85.83 141.29L94.68 137.02C94.33 136.86 93.98 136.66 93.65 136.42C92.12 135.35 90.93 133.56 90.08 131.05C89.77 130.15 89.6 129.25 89.55 128.34C89.48 126.96 89.71 125.57 90.24 124.16C90.64 123.1 91.17 122.16 91.83 121.31C92.81 120.08 94.07 119.08 95.62 118.3C96.65 117.67 97.8 116.98 99.08 116.23C99.06 116.23 99.04 116.23 99.02 116.22C95.87 115.83 93.9 114.4 93.08 111.94C91.27 106.48 92.68 102.26 97.31 99.26C104.54 94.58 115.02 88.95 128.76 82.38C123.49 80.21 117.07 76.89 109.5 72.45C103.16 68.72 97.92 65.8 93.79 63.68C88.99 61.23 86.13 58.6 85.21 55.8C84.94 54.98 84.83 54.18 84.87 53.38C84.96 51.91 85.59 50.48 86.75 49.08C87.89 47.7 89.42 46.93 91.34 46.77C92.95 46.63 94.58 46.93 96.25 47.67C112.43 54.86 122.89 59.42 127.63 61.35C131.82 63.06 136.91 64.86 142.91 66.75C154.18 70.32 163.64 70.2 171.27 66.42C172.42 65.85 173.52 65.2 174.58 64.47C179.22 61.27 183.72 55.35 188.09 46.69C192.56 37.84 195.82 28.2 197.87 17.79C198.03 17 198.77 16.5 199.56 16.66C200.36 16.81 200.85 17.56 200.7 18.35C198.59 29.02 195.25 38.9 190.66 47.99C186.07 57.08 181.26 63.36 176.22 66.84C174.85 67.78 173.43 68.6 171.95 69.29C163.75 73.14 153.78 73.21 142.04 69.5C135.97 67.58 130.81 65.75 126.55 64.02C121.77 62.08 111.29 57.5 95.08 50.3C93.11 49.42 91.5 49.29 90.24 49.9C89.77 50.13 89.34 50.47 88.97 50.92C88.14 51.92 87.74 52.9 87.76 53.88C87.77 54.22 87.83 54.56 87.94 54.89C88.62 56.95 91.01 59.02 95.11 61.12C99.29 63.26 104.57 66.21 110.96 69.96C119.96 75.25 127.27 78.89 132.89 80.89C133.27 81.02 133.54 81.27 133.71 81.63C134.12 82.5 133.89 83.14 133.02 83.55C117.9 90.68 106.52 96.72 98.88 101.68C96.93 102.94 95.75 104.32 95.32 105.84C94.95 107.19 95.11 108.92 95.82 111.04C96.25 112.34 97.44 113.12 99.38 113.37C101.73 113.66 104.31 113.05 107.12 111.53C110.6 109.64 114.99 107.24 120.29 104.31C127.82 100.16 133 97.44 135.83 96.15C136.08 96.04 136.29 95.94 136.47 95.87C136.91 95.68 137.29 95.66 137.6 95.79C137.92 95.92 138.16 96.2 138.35 96.64C138.71 97.52 138.46 98.15 137.59 98.52C137.38 98.61 137.15 98.71 136.9 98.83C134.54 99.93 128.88 102.93 119.92 107.83C109.49 113.53 101.87 117.85 97.07 120.79C97.04 120.82 97 120.84 96.96 120.86C95.72 121.47 94.72 122.27 93.98 123.25C93.55 123.83 93.2 124.47 92.94 125.17C92.3 126.86 92.26 128.51 92.8 130.12C93.46 132.04 94.29 133.36 95.3 134.07C96.31 134.78 97.54 134.79 99 134.11L120.23 124.21L143.72 113.32C144.57 112.92 145.21 113.15 145.62 114C146.04 114.86 145.81 115.5 144.95 115.92L87.09 143.88C84.39 145.19 81.93 146.69 79.72 148.39C75.22 151.85 70.52 155.61 65.6 159.66C63.31 161.55 61.8 163.51 61.07 165.54C60.49 167.19 60.48 168.64 61.07 169.89C61.61 171.02 62.5 171.74 63.76 172.04C63.79 172.04 63.81 172.05 63.83 172.05C65.28 172.38 66.86 172.07 68.59 171.13C70.82 169.92 73.42 168.34 76.41 166.38C81.38 163.12 86.79 160.04 92.65 157.14C99.61 153.69 109.81 149.15 123.24 143.5C136.23 138.04 145.27 134.47 150.34 132.78C151.74 132.32 153.46 131.72 155.51 130.98C158.33 129.96 160.19 129.43 161.08 129.41C162.53 129.36 163.83 130.08 164.98 131.56C166.06 132.95 165.68 134.7 163.84 136.8C162.97 137.79 161.11 139.49 158.28 141.92C153.66 145.86 150.39 149 148.47 151.35C145.18 155.35 143.35 158.83 142.96 161.79C142.6 164.46 143.44 167.06 145.47 169.6C146.58 170.99 147.8 171.29 149.13 170.5C150.28 169.83 152.3 167.83 155.18 164.51C156.72 162.73 157.93 161.38 158.79 160.46C162.17 156.85 165.46 153.8 168.67 151.29C171.73 148.89 176 146 181.48 142.62C186.58 139.46 190.47 135.8 193.15 131.64C195.77 127.57 198.41 121.19 201.05 112.48C201.4 111.34 201.87 109.75 202.48 107.72C204.67 100.37 206.44 95.42 207.79 92.89Z" fill="#30373C" fill-opacity="1.000000" fill-rule="evenodd"/>
	<ellipse id="OvalBig" cx="43.211914" cy="100.324707" rx="17.280006" ry="17.280003" fill="#B0DFFF" fill-opacity="1.000000"/>
	<rect id="Rectangle" x="160.527344" y="192.529663" width="25.255661" height="66.653305" transform="rotate(107.893 160.527344 192.529663)" fill="#D5DFE6" fill-opacity="1.000000"/>
	<ellipse id="OvalSmall" cx="156.789062" cy="44.473328" rx="8.937711" ry="8.948664" fill="#D5DFE6" fill-opacity="1.000000"/>
</svg>
