<svg width="240.000000" height="240.000000" viewBox="0 0 240 240" fill="none" xmlns="http://www.w3.org/2000/svg" xmlns:xlink="http://www.w3.org/1999/xlink">
	<path id="Accent" d="M6.24 63.13L8.63 50.4L98.82 79.89L96.42 92.63L6.24 63.13ZM99.14 111.17L96.95 98.4L6.3 126.39L8.49 139.17L99.14 111.17Z" fill="#FA5F05" fill-opacity="1.000000" fill-rule="evenodd"/>
	<ellipse id="OvalBig" cx="113.215820" cy="46.080017" rx="17.280003" ry="17.280001" fill="#B0DFFF" fill-opacity="1.000000"/>
	<rect id="Rectangle" x="60.892090" y="142.797180" width="25.255661" height="66.653313" transform="rotate(-12.1608 60.892090 142.797180)" fill="#D5DFE6" fill-opacity="1.000000"/>
	<ellipse id="OvalSmall" cx="172.102539" cy="66.747375" rx="8.937718" ry="8.948664" fill="#D5DFE6" fill-opacity="1.000000"/>
	<path id="Hand" d="M130.51 200.92C132.56 202.27 134.1 203.29 135.11 203.98C135.78 204.43 136.66 204.26 137.11 203.59C137.57 202.93 137.39 202.05 136.73 201.59C135.7 200.9 134.16 199.87 132.1 198.51C125.95 194.46 121.4 191.23 118.43 188.83C113.52 184.84 109.3 180.51 105.78 175.82C103.38 172.64 100.82 168.19 98.08 162.48C95.26 156.6 93.17 151.25 91.81 146.43C89.63 138.69 85.78 131.14 80.28 123.77C79.17 122.29 78.56 121.39 78.44 121.08C78.11 120.22 78.09 119.52 78.36 118.96C78.53 118.61 78.82 118.32 79.22 118.09C80.63 117.27 82.85 117.07 85.88 117.48C89.2 117.94 91.81 119.16 93.73 121.15C96.17 123.7 98.12 127.96 99.59 133.95C100.87 139.17 103.17 142.92 106.48 145.22C107.2 145.71 107.96 146.14 108.78 146.5C110.56 147.29 112.32 147.61 114.07 147.47C115.83 147.33 117.14 146.76 117.97 145.78C119.38 144.12 119.44 130.9 118.16 106.12C118.02 103.36 117.95 101.85 117.95 101.59C117.95 99.84 116.27 95.43 112.92 88.36C109.22 80.56 106.36 76.66 104.34 76.66C103.86 76.66 103.04 76.68 101.87 76.73C98 76.88 95.04 76.79 92.98 76.46C89.56 75.92 87.04 74.7 85.44 72.82C84.74 71.99 84.49 71.36 84.67 70.91C84.69 70.88 84.7 70.85 84.71 70.82C85.07 70.19 86.09 69.57 87.78 68.96C90.24 68.06 95.63 66.99 103.95 65.74C104.35 65.68 104.64 65.63 104.84 65.6C106.37 65.37 107.82 65.46 109.16 65.86C111.5 66.55 113.55 68.2 115.32 70.79C125.07 85.1 130.31 94.29 131.03 98.36C131.2 99.33 131.54 102.29 132.05 107.24C133.62 122.53 135.03 132.02 136.3 135.69C136.61 136.6 137.22 136.9 138.13 136.59C138.58 136.43 138.88 136.12 139.03 135.67C140.44 131.31 143.34 123.04 147.75 110.88C151.71 99.97 154.1 93.47 154.93 91.39C155.56 89.83 154.46 87.47 151.64 84.34C150.09 82.61 146.88 79.45 141.99 74.84C138.78 71.81 136.32 69.46 134.61 67.78C131.57 64.82 129.95 61.98 129.74 59.25C129.57 57.16 130.24 55.37 131.72 53.88C132.44 53.18 134.45 53.8 137.76 55.74C140.98 57.62 146.64 61.68 154.75 67.93C162.02 73.53 166.43 78.35 167.96 82.38C169.45 86.29 169.12 91.98 166.99 99.45C166.26 102 163.65 110.26 159.14 124.21C156.76 131.59 155.23 136.37 154.54 138.56C154.25 139.47 154.57 140.08 155.48 140.36C156.06 140.55 156.56 140.41 156.97 139.97L193.2 100.82C193.57 100.42 193.68 99.95 193.52 99.43C193.05 97.89 192.08 94.99 190.6 90.73C189.69 88.07 188.91 85.83 188.28 84.01C188.11 83.49 187.85 82.75 187.52 81.79C185.95 77.25 184.96 74.12 184.56 72.39C183.96 69.86 183.78 67.46 184.01 65.19C184.14 63.9 184.57 62.61 185.32 61.32C186.07 60.02 186.91 59.1 187.84 58.58C188.36 58.29 188.86 58.17 189.34 58.21C189.66 58.24 189.96 58.34 190.26 58.51C191.41 59.15 192.46 60.64 193.41 62.98C195.22 67.38 197.84 74.64 201.29 84.76C203.4 90.97 204.83 95.02 205.58 96.9C206.32 98.76 206.66 100.61 206.6 102.45C206.56 103.58 206.36 104.72 206.02 105.84C205.09 108.84 202.97 112.19 199.65 115.92C192.76 123.65 182.33 134.07 168.36 147.16C167.66 147.82 167.64 148.49 168.3 149.19C168.83 149.76 169.43 149.85 170.1 149.44C179.1 143.97 189.29 139.14 200.67 134.96C204.45 133.57 208.53 132.68 212.92 132.29C217.22 131.91 220.1 132.14 221.55 132.99C221.63 133.03 221.74 133.1 221.89 133.19C224.13 134.49 225.43 135.46 225.79 136.1C225.91 136.32 225.91 136.52 225.79 136.72C225.46 137.26 224.65 137.86 223.37 138.5C222.53 138.92 220.02 139.95 215.82 141.6C203.34 146.5 193.75 150.68 187.06 154.16C174.8 160.52 167.47 166.49 165.09 172.07C162.02 179.25 164.51 187.03 172.56 195.41C177.34 200.39 184.77 206.06 194.85 212.41C195.53 212.84 196.4 212.65 196.83 211.96C197.26 211.28 197.07 210.41 196.38 209.98C186.51 203.75 179.26 198.23 174.64 193.42C168.67 187.2 166.08 181.5 166.86 176.29C167.01 175.24 167.31 174.21 167.74 173.2C169.85 168.26 176.73 162.76 188.39 156.71C194.99 153.29 204.48 149.14 216.87 144.28C221.15 142.6 223.75 141.53 224.66 141.08C226.44 140.18 227.64 139.23 228.25 138.21C228.95 137.06 228.97 135.88 228.3 134.69C227.68 133.59 226.03 132.26 223.34 130.7C223.19 130.61 223.07 130.54 223 130.5C221.02 129.35 217.58 128.99 212.67 129.42C208.02 129.84 203.69 130.78 199.68 132.25C192.16 135.01 185.16 138.05 178.66 141.37C188.59 131.85 196.3 124.01 201.8 117.84C205.4 113.8 207.72 110.08 208.77 106.69C209.22 105.25 209.45 103.79 209.49 102.34C209.53 100.18 209.12 98.01 208.25 95.83C207.52 94 206.11 90 204.01 83.83C200.55 73.65 197.9 66.34 196.08 61.89C194.87 58.93 193.4 56.97 191.68 56C190.91 55.57 190.13 55.34 189.35 55.3C188.39 55.26 187.42 55.52 186.43 56.07C185.04 56.85 183.83 58.12 182.82 59.88C181.87 61.53 181.31 63.2 181.14 64.9C180.88 67.49 181.09 70.21 181.75 73.05C182.18 74.87 183.2 78.1 184.8 82.73C185.13 83.69 185.38 84.43 185.56 84.94C186.19 86.77 186.96 89.02 187.88 91.67C189.12 95.25 190 97.86 190.52 99.48L159.25 133.26C159.97 131.03 160.85 128.31 161.89 125.09C166.4 111.11 169.02 102.83 169.76 100.24C172.07 92.16 172.37 85.86 170.65 81.36C168.93 76.81 164.21 71.58 156.5 65.64C148.3 59.33 142.54 55.2 139.22 53.25C135.09 50.83 132.1 50.21 130.27 51.38C130.06 51.51 129.86 51.67 129.69 51.85C128.63 52.91 127.86 54.08 127.39 55.36C126.93 56.62 126.75 58 126.86 59.48C127.13 62.92 129.04 66.38 132.6 69.85C134.32 71.53 136.8 73.89 140.02 76.93C148.53 84.97 152.61 89.43 152.26 90.32C151.42 92.43 149.01 98.96 145.05 109.9C141.9 118.58 139.51 125.28 137.89 130.01C136.98 125.14 135.99 117.45 134.91 106.94C134.39 101.93 134.05 98.9 133.86 97.86C133.07 93.38 127.68 83.82 117.7 69.17C115.59 66.08 113.13 64.08 110.32 63.16C108.5 62.57 106.53 62.43 104.41 62.75C104.21 62.78 103.92 62.83 103.52 62.89C95.02 64.17 89.44 65.29 86.8 66.25C84.44 67.11 82.91 68.16 82.21 69.41C81.94 69.88 81.78 70.36 81.73 70.86C81.6 72.07 82.1 73.34 83.24 74.68C85.31 77.09 88.42 78.65 92.53 79.31C94.77 79.66 97.93 79.76 101.99 79.6C103.11 79.56 103.9 79.54 104.34 79.54C104.55 79.54 105.23 80.43 106.37 82.22C107.54 84.05 108.86 86.51 110.31 89.59C113.48 96.28 115.07 100.28 115.07 101.59C115.07 101.9 115.14 103.46 115.28 106.27C116.53 130.29 116.69 142.84 115.77 143.92C115.45 144.29 114.81 144.52 113.83 144.6C112.57 144.7 111.28 144.46 109.94 143.87C109.47 143.66 109.02 143.42 108.59 143.16C105.62 141.31 103.56 138.01 102.39 133.26C100.8 126.78 98.6 122.08 95.8 119.16C93.43 116.69 90.25 115.17 86.27 114.63C82.59 114.12 79.76 114.45 77.78 115.6C75.31 117.03 74.64 119.2 75.75 122.11C75.97 122.67 76.71 123.8 77.97 125.49C83.26 132.58 86.95 139.82 89.04 147.21C90.44 152.19 92.59 157.69 95.48 163.73C98.3 169.61 100.97 174.22 103.47 177.55C107.14 182.43 111.52 186.93 116.62 191.07C119.66 193.53 124.29 196.81 130.51 200.92Z" fill="#30373C" fill-opacity="1.000000" fill-rule="evenodd"/>
</svg>
