<svg width="240.000000" height="240.000000" viewBox="0 0 240 240" fill="none" xmlns="http://www.w3.org/2000/svg" xmlns:xlink="http://www.w3.org/1999/xlink">
	<ellipse id="Accent" cx="148.800049" cy="43.680054" rx="17.279999" ry="17.280003" fill="#FA5F05" fill-opacity="1.000000"/>
		<path id="Hand" d="M83.84 208.93C81.15 213.58 77.02 218.93 71.43 224.97C70.89 225.57 70.92 226.46 71.51 227.01C72.11 227.56 73 227.52 73.55 226.93C86.69 212.7 91.95 202.57 89.32 196.52C88.75 195.22 87.69 193.91 86.12 192.61C85.23 191.87 83.7 190.77 81.52 189.33C78.17 187.1 75.76 185.27 74.3 183.83C72 181.58 70.48 179.1 69.72 176.41C69.68 176.29 69.65 176.16 69.62 176.03C68.69 172.38 68.13 167.01 67.92 159.93C67.7 152.59 66.99 147.43 65.79 144.46C64.07 140.21 62.27 136.83 60.39 134.31C59.81 133.53 59.36 132.9 59.03 132.41C57.92 130.74 57.48 129.33 57.7 128.17C57.73 127.99 57.8 127.81 57.89 127.65C58.34 126.87 59.46 126.48 61.26 126.48C64.18 126.48 66.72 127.12 68.9 128.39C71.24 129.76 73.15 131.86 74.63 134.7C75.23 135.86 76.23 139.3 77.61 145.01C79.29 151.93 80.61 156.32 81.57 158.19C82.38 159.75 83.27 160.59 84.25 160.71C84.68 160.76 85.12 160.68 85.58 160.46C86.74 159.91 87.75 158.12 88.61 155.11C90.44 148.69 93.53 133.68 97.87 110.07C100.35 96.61 101.95 88.4 102.69 85.43C103.72 81.27 105.24 74.15 107.27 64.06C108.75 56.65 109.77 51.83 110.32 49.6C111.16 46.22 112.32 44 113.82 42.93C115.1 42.02 116.68 42.06 118.57 43.05C119.66 43.62 120.47 44.36 121 45.26C121.33 45.8 121.55 46.4 121.67 47.06C121.9 48.32 121.8 50.76 121.37 54.35C120.99 57.56 120.28 62.45 119.24 69.02C118.15 75.89 117.3 80.76 116.69 83.64L108.23 130.53C108.06 131.47 108.44 132.03 109.39 132.2C110.13 132.34 110.66 132.06 110.96 131.36C112.55 127.75 114.3 124.04 116.21 120.25C119.93 112.87 122.47 108.79 123.83 108.02C124.37 107.72 124.92 107.48 125.5 107.31C126.66 106.95 127.91 106.86 129.24 107.04C131.17 107.3 132.88 108.05 134.35 109.31C136.25 110.93 137.53 113.34 138.19 116.53C138.19 116.57 138.19 116.61 138.19 116.65C138.38 119.23 138.11 124.74 137.38 133.18C136.89 138.85 136.42 143.62 135.96 147.49C135.73 149.38 131.38 154.87 122.89 163.97C122.05 164.87 121.01 165.42 119.8 165.61C119.17 165.7 118.55 165.69 117.96 165.58C117.47 165.49 117 165.33 116.54 165.11C114.2 163.95 113.51 162.03 114.46 159.34C115.44 156.59 117.26 153.54 119.92 150.19C121.68 147.98 122.91 146.2 123.61 144.84C123.71 144.65 123.76 144.45 123.77 144.23L124.57 121.16C124.6 120.35 123.99 119.7 123.18 119.67C122.38 119.64 121.72 120.25 121.69 121.06L120.91 143.8C120.44 144.63 119.75 145.66 118.84 146.88C113.22 144.4 108.21 142.54 103.8 141.31C103.02 141.09 102.24 141.53 102.03 142.31C101.81 143.08 102.25 143.86 103.02 144.08C107.13 145.23 111.79 146.95 117.02 149.23C114.5 152.51 112.75 155.56 111.75 158.38C111.2 159.94 111.07 161.41 111.36 162.79C111.46 163.23 111.59 163.66 111.78 164.09C112.03 164.68 112.36 165.23 112.75 165.72C113.4 166.52 114.24 167.18 115.26 167.69C115.99 168.05 116.74 168.3 117.52 168.43C118.39 168.59 119.3 168.59 120.23 168.45C121.57 168.25 122.76 167.76 123.81 167C124.29 168.12 125.12 169.23 126.3 170.31C127.82 171.72 129.41 172.51 131.06 172.67C132.05 172.77 133.06 172.64 134.09 172.3C136.85 171.37 140.03 168.81 143.64 164.61C144.98 165.64 146.26 166.68 147.48 167.74C148.09 168.26 148.99 168.2 149.52 167.59C150.04 166.97 149.98 166.08 149.36 165.55C148.12 164.48 146.82 163.42 145.47 162.38C146.73 160.78 148.04 158.99 149.4 157.01C151.49 153.97 152.81 149.63 153.34 143.98C153.72 143.76 154.15 143.46 154.64 143.09C157.39 141.03 159.5 140.08 160.96 140.26C164 140.62 166.07 142.59 167.15 146.17C167.94 148.75 168.69 153.67 169.42 160.91C169.71 163.7 169.51 165.62 168.83 166.64C168.34 167.39 167.35 167.82 165.85 167.93C164.66 168.03 163.54 167.38 162.49 165.99C161.41 164.56 160.64 162.73 160.18 160.49C159.35 156.49 158.59 153.3 157.89 150.92C157.75 150.46 157.54 150.15 157.24 149.99C156.94 149.83 156.56 149.81 156.1 149.95C155.55 150.11 155.21 150.48 155.1 151.05C154.74 152.8 154.24 156.07 153.59 160.86C152.26 170.55 150.98 177.73 149.73 182.38C147.62 190.23 144.88 195.46 141.49 198.06C138.42 200.42 136.24 202.19 134.97 203.37C133.16 205.05 131.74 206.76 130.69 208.52C128.93 211.49 127.18 217.26 125.44 225.83C125.28 226.62 125.77 227.37 126.56 227.53C127.35 227.69 128.1 227.19 128.26 226.4C129.93 218.15 131.57 212.68 133.17 209.99C134.57 207.64 137.93 204.42 143.25 200.34C147.15 197.34 150.24 191.61 152.51 183.13C153.79 178.36 155.1 171.06 156.44 161.25C156.57 160.28 156.7 159.37 156.82 158.53C157 159.34 157.18 160.18 157.36 161.07C157.91 163.73 158.85 165.95 160.19 167.73C161.88 169.96 163.84 170.98 166.08 170.81C168.52 170.61 170.23 169.75 171.24 168.23C172.29 166.63 172.64 164.09 172.29 160.62C171.54 153.19 170.75 148.09 169.91 145.33C169.01 142.37 167.57 140.23 165.58 138.9C164.36 138.09 162.93 137.59 161.3 137.4C159.27 137.16 156.75 138.08 153.77 140.17L155.14 128.63C155.72 123.69 154.74 119.8 152.17 116.94C150.26 114.81 147.89 113.57 145.08 113.24C143.34 113.03 141.85 113.37 140.59 114.26C139.76 111.39 138.4 109.09 136.52 107.38C136.42 107.29 136.32 107.2 136.22 107.11C134.32 105.49 132.12 104.52 129.62 104.19C127 103.84 124.6 104.28 122.42 105.51C120.54 106.57 117.62 111.05 113.64 118.95C113.43 119.37 113.22 119.78 113.02 120.2L119.52 84.21C120.13 81.29 120.99 76.37 122.08 69.47C123.13 62.86 123.85 57.93 124.23 54.69C124.69 50.81 124.78 48.09 124.5 46.54C124.3 45.43 123.91 44.42 123.35 43.54C122.56 42.3 121.41 41.29 119.91 40.5C117.95 39.48 116.15 39.15 114.51 39.51C113.68 39.7 112.9 40.05 112.15 40.59C110.08 42.06 108.53 44.83 107.53 48.91C106.96 51.18 105.94 56.04 104.44 63.49C102.43 73.54 100.91 80.62 99.89 84.74C99.14 87.76 97.53 96.03 95.04 109.55C90.72 133.07 87.65 147.99 85.84 154.31C85.35 156.05 84.93 157.16 84.59 157.63C84.45 157.45 84.3 157.19 84.13 156.86C83.27 155.21 82.03 151.03 80.41 144.33C78.97 138.39 77.9 134.74 77.18 133.37C75.43 130.01 73.17 127.52 70.41 125.9C67.81 124.37 64.76 123.6 61.26 123.6C57.51 123.6 55.38 124.95 54.87 127.64C54.5 129.57 55.09 131.69 56.63 134C56.99 134.54 57.47 135.22 58.08 136.03C59.81 138.35 61.49 141.52 63.12 145.54C64.19 148.19 64.83 153.02 65.04 160.01C65.26 167.31 65.85 172.88 66.83 176.74C67.67 180.09 69.49 183.14 72.28 185.88C73.87 187.45 76.42 189.4 79.93 191.73C83.83 194.32 86.08 196.3 86.68 197.67C87.73 200.09 86.78 203.84 83.84 208.93ZM128.25 168.2C126.9 166.95 126.21 165.77 126.19 164.65C134.32 155.84 138.53 150.23 138.82 147.83C139.28 143.93 139.76 139.13 140.25 133.42C140.89 126.09 141.18 120.89 141.12 117.83C141.18 117.75 141.25 117.66 141.32 117.57C142.16 116.42 143.3 115.93 144.74 116.1C146.83 116.35 148.6 117.27 150.03 118.86C152.01 121.07 152.76 124.22 152.28 128.29L150.72 141.47C150.69 141.56 150.67 141.65 150.66 141.74C150.63 141.98 150.59 142.38 150.54 142.92C150.54 142.96 150.53 143 150.53 143.03C150.53 143.09 150.52 143.14 150.52 143.2C150.06 148.61 148.9 152.66 147.03 155.38C141.34 163.64 136.72 168.37 133.17 169.57C132.66 169.74 132.15 169.82 131.64 169.8C130.49 169.76 129.36 169.22 128.25 168.2Z" fill="#30373C" fill-opacity="1.000000" fill-rule="evenodd"/>
		<path id="Stars" d="M60.96 31.91C70.04 31.82 84.99 21.11 84.86 7.68C84.99 21.11 100.14 31.53 109.23 31.45C100.14 31.53 85.19 42.25 85.32 55.68C85.19 42.25 70.04 31.82 60.96 31.91ZM146.06 104.16C159.62 104.31 181.9 120.11 181.9 140.16C181.9 120.11 204.13 104.31 217.7 104.15C204.13 104 181.9 88.2 181.9 68.16C181.9 88.2 159.62 104 146.06 104.16Z" fill="#B0DFFF" fill-opacity="1.000000" fill-rule="evenodd"/>
		<path id="Polygon" d="M27.15 60.45L61.74 111.52L86.29 77.98L27.15 60.45Z" fill="#D5DFE6" fill-opacity="1.000000" fill-rule="evenodd"/>
</svg>
