<svg width="240.000000" height="240.000000" viewBox="0 0 240 240" fill="none" xmlns="http://www.w3.org/2000/svg" xmlns:xlink="http://www.w3.org/1999/xlink">
	<rect id="Rectangle" x="175.919922" y="96.959961" rx="9.599999" width="43.199997" height="43.200005" fill="#D5DFE6" fill-opacity="1.000000"/>
		<path id="Accent" d="M176.54 58.08C169.12 58.08 163.1 64.09 163.1 71.51C163.1 76.53 165.85 80.9 169.92 83.21L162 108.72L191.09 108.72L183.17 83.21C187.24 80.9 189.98 76.53 189.98 71.51C189.98 64.09 183.97 58.08 176.54 58.08Z" fill="#FA5F05" fill-opacity="1.000000" fill-rule="evenodd"/>
		<path id="Hand" d="M86.1 210.12C85.56 211.26 85.14 212.13 84.86 212.73C84.51 213.45 84.8 214.3 85.53 214.65C86.26 215 87.1 214.7 87.45 213.98C87.74 213.38 88.16 212.5 88.7 211.35C91.29 205.88 93.47 202.03 95.26 199.79C98.07 196.27 102.05 193.21 107.2 190.64C109.91 189.28 113.96 187.61 119.33 185.63C124.87 183.59 128.83 181.9 131.2 180.58C135.19 178.35 138.18 175.61 140.18 172.36C142.33 168.87 145.83 163.94 150.68 157.57C154.45 152.62 156.8 149.29 157.74 147.57C159.15 144.99 160.73 138.78 162.49 128.95C163.13 125.36 163.59 122.97 163.88 121.78C164.38 119.67 163.74 118.07 161.94 116.97C160.56 116.13 158.77 115.82 156.55 116.02C154.41 116.22 152.4 116.86 150.52 117.93C148.69 118.98 147.28 120.3 146.3 121.87C146.13 122.15 145.97 122.43 145.83 122.72C143.95 126.48 142.29 131.33 140.85 137.29C140.61 138.29 140.42 139.01 140.3 139.45C137.7 142.44 134.51 145.24 130.73 147.85C125.94 151.16 122.34 152.46 119.92 151.74C119.82 151.71 119.72 151.68 119.62 151.64C117.58 150.79 116.44 147.75 116.21 142.51C116.04 138.56 116.5 132.24 117.58 123.54C118.03 119.99 118.57 115.92 119.22 111.33L120.65 111.73C120.82 111.78 120.99 111.83 121.15 111.9C122.12 112.33 122.91 113.18 123.51 114.46C124.91 117.45 126.77 119.51 129.09 120.65C130.93 121.57 133.06 121.89 135.49 121.64C137.5 121.42 138.93 120.76 139.78 119.66C140.55 118.66 140.84 117.29 140.66 115.56C140.48 113.82 139.46 110.94 137.61 106.94C137.24 106.13 136.96 105.53 136.79 105.14C135.2 101.59 133.13 99.05 130.57 97.52L122 92.41C122.23 90.91 122.47 89.37 122.71 87.8L130.71 85.9C132.87 90.21 135.91 92.94 139.84 94.1C142.96 95.03 145.89 94.9 148.64 93.72C150.56 92.9 150.85 90.19 149.52 85.6C148.86 83.34 147.47 79.56 145.34 74.27C144.15 71.34 143.36 69.3 142.95 68.16C142.66 67.33 142.24 66.61 141.7 66C140.02 64.1 137.15 63.25 133.1 63.46C130.29 63.6 125.79 64.47 119.61 66.07C117.4 66.64 115.83 67.03 114.88 67.24C110.65 68.18 107.53 69.91 105.54 72.46C104.15 74.23 103.14 76.79 102.5 80.12C102.41 80.58 102.22 81.51 101.91 82.89C97.57 81.27 93.99 80.92 91.17 81.83C90.34 82.11 89.58 82.48 88.89 82.96C86.7 84.48 85.24 87.05 84.5 90.67L84.16 92.37C83.99 92.36 83.81 92.35 83.61 92.33C80.71 92.15 78.47 92.46 76.91 93.26C76.81 93.31 76.71 93.36 76.62 93.41C74.06 94.85 72.3 97.69 71.31 101.91C71.06 103.01 70.72 104.51 70.29 106.42C67.87 106.08 65.78 106.37 64.02 107.29C62.75 107.96 61.65 108.96 60.73 110.3C54.16 119.82 50.88 126.57 50.88 130.56C50.88 133.35 51.04 138.13 51.37 144.88C52.13 160.36 51.97 170.77 50.9 176.12C49.5 183.13 46.28 190.45 41.24 198.08C35.13 207.33 27.88 214.24 19.47 218.83C18.76 219.21 18.5 220.07 18.89 220.78C19.28 221.49 20.14 221.74 20.84 221.36C29.67 216.54 37.27 209.31 43.65 199.67C48.89 191.73 52.25 184.07 53.73 176.69C54.47 172.96 54.84 167.97 54.82 161.7C54.81 158.03 54.62 152.37 54.25 144.73C53.92 138.03 53.76 133.31 53.76 130.56C53.76 127.17 56.87 120.96 63.1 111.93C63.97 110.68 64.98 109.85 66.15 109.43C66.37 109.35 66.6 109.28 66.84 109.23C67.6 109.08 68.54 109.07 69.65 109.23C68.96 112.21 68.37 114.46 67.88 115.97C66.92 118.97 65.55 122.17 63.76 125.57C63.39 126.28 63.65 127.14 64.36 127.51C65.08 127.89 65.93 127.62 66.31 126.91C68.18 123.36 69.62 120.01 70.62 116.85C71.27 114.82 72.09 111.59 73.08 107.15C73.51 105.2 73.86 103.67 74.12 102.56C74.94 99.05 76.3 96.8 78.22 95.82C79.31 95.26 81.05 95.06 83.43 95.21C83.48 95.21 83.53 95.22 83.58 95.22L81.31 106.32L77.54 124.75C77.38 125.54 77.88 126.29 78.67 126.45C79.46 126.61 80.2 126.12 80.37 125.33L84.13 106.9L87.33 91.25C87.95 88.18 89.16 86.12 90.96 85.07C91.31 84.86 91.68 84.7 92.07 84.57C94.32 83.84 97.39 84.22 101.28 85.73C100.97 87.16 100.59 88.85 100.15 90.79C96.28 107.89 94.03 118.68 93.37 123.16C93.25 123.95 93.79 124.67 94.59 124.79C95.38 124.91 96.1 124.37 96.22 123.57C96.86 119.17 99.11 108.45 102.96 91.43C104.33 85.35 105.12 81.76 105.33 80.66C105.88 77.79 106.7 75.64 107.81 74.23C109.38 72.23 111.94 70.84 115.51 70.05C116.48 69.83 118.09 69.44 120.33 68.86C126.33 67.31 130.63 66.47 133.24 66.33C136.59 66.17 138.77 66.81 139.8 68.28C139.98 68.53 140.13 68.82 140.24 69.13C140.66 70.3 141.47 72.38 142.66 75.35C146.72 85.41 148.34 90.65 147.52 91.06C146.94 91.31 146.34 91.51 145.73 91.63C144.13 91.97 142.44 91.87 140.65 91.34C137.67 90.46 135.3 88.37 133.53 85.08C133.72 84.97 133.9 84.85 134.07 84.71C134.68 84.24 135.21 83.6 135.66 82.78C136.1 82 136.43 81.1 136.67 80.1C136.91 79.06 137.04 77.96 137.04 76.8C137.04 75.99 136.4 75.36 135.6 75.36C134.79 75.36 134.16 75.99 134.16 76.8C134.16 77.74 134.06 78.62 133.87 79.44C133.69 80.19 133.45 80.83 133.14 81.38C133.01 81.63 132.86 81.84 132.71 82.03C132.58 82.2 132.44 82.33 132.3 82.44C132.19 82.53 132.09 82.59 131.99 82.63L131.85 82.66C131.6 82.66 131.32 82.73 131.12 82.84L120.16 85.45L120.01 86.4C117.61 101.94 115.85 114.2 114.73 123.19C113.62 132.04 113.16 138.52 113.34 142.63C113.6 148.66 115.11 152.44 117.88 153.99C118.26 154.21 118.67 154.38 119.11 154.5C122.4 155.48 126.82 154.05 132.36 150.22C136.45 147.4 139.89 144.36 142.69 141.09L142.88 140.86L142.97 140.58C143.11 140.15 143.33 139.27 143.65 137.97C145.04 132.22 146.62 127.57 148.4 124.01C149.12 122.57 150.31 121.38 151.95 120.43C153.47 119.56 155.09 119.05 156.82 118.89C158.4 118.74 159.61 118.92 160.44 119.43C161.04 119.8 161.25 120.36 161.08 121.11C160.78 122.35 160.3 124.8 159.65 128.45C157.95 137.97 156.47 143.88 155.21 146.2C154.35 147.78 152.07 150.99 148.39 155.83C143.48 162.27 139.93 167.28 137.73 170.85C135.99 173.67 133.35 176.08 129.79 178.07C127.56 179.32 123.74 180.94 118.33 182.93C112.86 184.95 108.72 186.66 105.91 188.06C100.38 190.83 96.08 194.14 93 198C91.08 200.41 88.78 204.45 86.1 210.12ZM121.43 108.95L119.63 108.45C120.2 104.48 120.83 100.16 121.54 95.49L129.1 99.99C131.13 101.21 132.82 103.32 134.16 106.32C134.34 106.72 134.62 107.33 135 108.15C136.72 111.86 137.65 114.43 137.8 115.86C137.88 116.64 137.75 117.27 137.4 117.74C136.98 118.31 136.24 118.66 135.18 118.77C133.43 118.96 131.88 118.73 130.53 118.09C128.7 117.22 127.23 115.6 126.11 113.24C125.33 111.56 124.27 110.34 122.95 109.59C122.48 109.32 121.97 109.11 121.43 108.95Z" fill="#30373C" fill-opacity="1.000000" fill-rule="evenodd"/>
		<path id="Knock" d="M148.37 51.13L115.73 18.01L106.5 27.11L139.14 60.23L148.37 51.13ZM166.04 49.02L161.69 18.75L148.86 20.6L153.21 50.86L166.04 49.02Z" fill="#B0DFFF" fill-opacity="1.000000" fill-rule="evenodd"/>
</svg>
