<svg width="16" height="16" viewBox="0 0 16 16" fill="none" xmlns="http://www.w3.org/2000/svg" xmlns:xlink="http://www.w3.org/1999/xlink">
	<path id="path" d="M16 16L0 16L0 0L16 0L16 16Z" fill="#000000" fill-opacity="0" fill-rule="nonzero"/>
	<path id="path" d="M0 16L0 0L16 0L16 16L0 16Z" stroke="#000000" stroke-opacity="0" stroke-width="1.330000" stroke-linejoin="round"/>
	<path id="path" d="M10.86 8.22L10.86 8.19C11.12 7.93 11.54 7.93 11.8 8.19C12.06 8.45 12.06 8.87 11.8 9.13L11.77 9.13L10.86 8.22ZM4.22 9.13L4.19 9.13C3.93 8.87 3.93 8.45 4.19 8.19C4.45 7.93 4.87 7.93 5.13 8.19L5.13 8.22L4.22 9.13Z" fill="#000000" fill-opacity="0" fill-rule="nonzero"/>
	<path id="path" d="M11.33 8.66L8 12L4.66 8.66" stroke="currentColor" stroke-opacity="1.000000" stroke-width="1.330000" stroke-linejoin="round" stroke-linecap="round"/>
	<path id="path" d="M10.86 4.22L10.86 4.19C11.12 3.93 11.54 3.93 11.8 4.19C12.06 4.45 12.06 4.87 11.8 5.13L11.77 5.13L10.86 4.22ZM4.22 5.13L4.19 5.13C3.93 4.87 3.93 4.45 4.19 4.19C4.45 3.93 4.87 3.93 5.13 4.19L5.13 4.22L4.22 5.13Z" fill="#000000" fill-opacity="0" fill-rule="nonzero"/>
	<path id="path" d="M11.33 4.66L8 8L4.66 4.66" stroke="currentColor" stroke-opacity="1.000000" stroke-width="1.330000" stroke-linejoin="round" stroke-linecap="round"/>
</svg>
