<svg width="16" height="16" viewBox="0 0 16 16" fill="none" xmlns="http://www.w3.org/2000/svg" xmlns:xlink="http://www.w3.org/1999/xlink">
	<rect id="circle-dot" width="16" height="16" fill="white" fill-opacity="0"/>
	<path id="Union" d="M1.45801 9.29492C1.54297 9.72266 1.66992 10.1406 1.83984 10.5518C2.00879 10.96 2.21387 11.3447 2.45508 11.7051C2.69531 12.0654 2.97266 12.4023 3.28516 12.7148C3.59766 13.0273 3.93359 13.3047 4.29492 13.5459C4.65527 13.7861 5.03906 13.9912 5.44824 14.1611C5.85645 14.3301 6.27344 14.457 6.69824 14.542C7.12402 14.626 7.55762 14.6689 8 14.6689C8.44141 14.6689 8.87598 14.626 9.30078 14.542C9.72656 14.457 10.1426 14.3301 10.5518 14.1611C10.96 13.9912 11.3447 13.7861 11.7051 13.5459C12.0654 13.3047 12.4023 13.0273 12.7148 12.7148C13.0273 12.4023 13.3037 12.0654 13.5449 11.7051C13.7852 11.3447 13.9902 10.96 14.1592 10.5518C14.3291 10.1426 14.4551 9.72559 14.54 9.30078C14.624 8.875 14.666 8.44141 14.666 8C14.666 7.55957 14.625 7.12793 14.541 6.70508C14.457 6.27734 14.3291 5.8584 14.1592 5.44824C13.9902 5.04004 13.7852 4.65527 13.5449 4.29492C13.3037 3.93359 13.0273 3.59766 12.7148 3.28418C12.4023 2.97168 12.0654 2.69531 11.7051 2.4541C11.3447 2.21289 10.96 2.00781 10.5518 1.83887C10.1426 1.66992 9.72656 1.54297 9.30078 1.45801C8.87598 1.37305 8.44141 1.33105 8 1.33105C7.55762 1.33105 7.12402 1.37305 6.69824 1.45801C6.27344 1.54297 5.85645 1.66992 5.44824 1.83887C5.03906 2.00781 4.65527 2.21289 4.29492 2.4541C3.93359 2.69531 3.59766 2.97168 3.28516 3.28418C2.97266 3.59766 2.69531 3.93359 2.45508 4.29395C2.21387 4.65527 2.00879 5.04004 1.83984 5.44824C1.6709 5.85645 1.54395 6.27344 1.45996 6.69922C1.375 7.12402 1.33301 7.55762 1.33301 8C1.33301 8.44043 1.375 8.87207 1.45801 9.29492ZM3.56348 10.9648C3.37109 10.6758 3.20703 10.3682 3.07227 10.042C2.9375 9.7168 2.83594 9.38477 2.76855 9.04688C2.7002 8.7041 2.66602 8.35547 2.66602 8C2.66602 7.64551 2.7002 7.29883 2.76758 6.95898C2.83496 6.61816 2.93652 6.28516 3.07227 5.95801C3.20703 5.63086 3.37109 5.32324 3.56348 5.03516C3.75684 4.74707 3.97754 4.47754 4.22754 4.22754C4.47754 3.97656 4.74707 3.75586 5.03516 3.5625C5.32422 3.37012 5.63184 3.20605 5.95801 3.07031C6.28516 2.93555 6.61816 2.83398 6.95898 2.76562C7.29883 2.69824 7.64551 2.66406 8 2.66406C8.35352 2.66406 8.7002 2.69824 9.04102 2.76562C9.38086 2.83398 9.71387 2.93555 10.041 3.07031C10.3682 3.20605 10.6758 3.37012 10.9639 3.5625C11.252 3.75586 11.5215 3.97656 11.7715 4.22754C12.0215 4.47754 12.2432 4.74707 12.4355 5.03516C12.6279 5.32324 12.792 5.63086 12.9277 5.95801C13.0625 6.2832 13.1631 6.61426 13.2305 6.95312C13.2988 7.29492 13.333 7.64453 13.333 8C13.333 8.35352 13.2998 8.7002 13.2314 9.04102C13.1641 9.38086 13.0625 9.71484 12.9277 10.042C12.792 10.3682 12.6279 10.6758 12.4355 10.9648C12.2432 11.2529 12.0215 11.5225 11.7715 11.7725C11.5215 12.0225 11.252 12.2441 10.9639 12.4365C10.6758 12.6299 10.3682 12.7939 10.041 12.9287C9.71387 13.0645 9.38086 13.166 9.04102 13.2334C8.7002 13.3018 8.35352 13.335 8 13.335C7.64551 13.335 7.29883 13.3018 6.95898 13.2334C6.61816 13.166 6.28516 13.0645 5.95801 12.9287C5.63184 12.7939 5.32422 12.6299 5.03516 12.4365C4.74707 12.2441 4.47754 12.0225 4.22754 11.7725C3.97754 11.5225 3.75684 11.2529 3.56348 10.9648ZM7.99902 9.33301C7.68066 9.33301 7.41211 9.25879 7.19531 9.11035C7.13574 9.06934 7.08008 9.02344 7.02832 8.9707C6.97559 8.91895 6.92969 8.86328 6.88867 8.80371C6.74023 8.58691 6.66602 8.31836 6.66602 8C6.66602 7.68066 6.74023 7.41309 6.88867 7.19531C6.92969 7.13574 6.97559 7.08008 7.02832 7.02832C7.08008 6.97656 7.13574 6.92969 7.19531 6.88965C7.41211 6.74023 7.68066 6.66602 7.99902 6.66602C8.31836 6.66602 8.58594 6.74023 8.80371 6.88965C8.86328 6.92969 8.91895 6.97656 8.9707 7.02832C9.02246 7.08008 9.06934 7.13574 9.10938 7.19531C9.25879 7.41309 9.33301 7.68066 9.33301 8C9.33301 8.31836 9.25879 8.58691 9.10938 8.80371L9.10938 8.80371C9.06934 8.86328 9.02246 8.91895 8.9707 8.9707C8.91895 9.02344 8.86328 9.06934 8.80371 9.11035L8.80371 9.11035C8.58594 9.25879 8.31836 9.33301 7.99902 9.33301Z" clip-rule="evenodd" fill="currentColor" fill-opacity="1.000000" fill-rule="evenodd"/>
</svg>
