<svg width="20.000000" height="20.000000" viewBox="0 0 20 20" fill="none" xmlns="http://www.w3.org/2000/svg" xmlns:xlink="http://www.w3.org/1999/xlink">
	<desc>
			Created with Pixso.
	</desc>
	<defs>
		<clipPath id="clip488_27112">
			<rect id="layout-dashboard" width="20.000000" height="20.000000" fill="white" fill-opacity="0"/>
		</clipPath>
	</defs>
	<rect id="Dashboard" width="20.000000" height="20.000000" fill="#FFFFFF" fill-opacity="0"/>
	<mask id="mask488_27112" mask-type="alpha" maskUnits="userSpaceOnUse" x="0.000000" y="0.000000" width="20.000000" height="20.000000">
		<g clip-path="url(#clip488_27112)">
			<path id="Vector" d="M8.33 2.5L3.33 2.5C2.83 2.5 2.5 2.83 2.5 3.33L2.5 10C2.5 10.5 2.83 10.83 3.33 10.83L8.33 10.83C8.83 10.83 9.16 10.5 9.16 10L9.16 3.33C9.16 2.83 8.83 2.5 8.33 2.5ZM16.66 2.5L11.66 2.5C11.16 2.5 10.83 2.83 10.83 3.33L10.83 6.66C10.83 7.16 11.16 7.5 11.66 7.5L16.66 7.5C17.16 7.5 17.5 7.16 17.5 6.66L17.5 3.33C17.5 2.83 17.16 2.5 16.66 2.5ZM7.5 9.16L4.16 9.16L4.16 4.16L7.5 4.16L7.5 9.16ZM15.83 5.83L12.5 5.83L12.5 4.16L15.83 4.16L15.83 5.83ZM16.66 9.16L11.66 9.16C11.16 9.16 10.83 9.5 10.83 10L10.83 16.66C10.83 17.16 11.16 17.5 11.66 17.5L16.66 17.5C17.16 17.5 17.5 17.16 17.5 16.66L17.5 10C17.5 9.5 17.16 9.16 16.66 9.16ZM15.83 15.83L12.5 15.83L12.5 10.83L15.83 10.83L15.83 15.83ZM8.33 12.5L3.33 12.5C2.83 12.5 2.5 12.83 2.5 13.33L2.5 16.66C2.5 17.16 2.83 17.5 3.33 17.5L8.33 17.5C8.83 17.5 9.16 17.16 9.16 16.66L9.16 13.33C9.16 12.83 8.83 12.5 8.33 12.5ZM7.5 15.83L4.16 15.83L4.16 14.16L7.5 14.16L7.5 15.83Z" fill="#000000" fill-opacity="1.000000" fill-rule="evenodd"/>
		</g>
	</mask>
	<g mask="url(#mask488_27112)">
		<rect id="Rectangle" width="20.000000" height="20.000000" fill="#1549AB" fill-opacity="1.000000"/>
	</g>
</svg>
