<svg width="20.000000" height="20.000000" viewBox="0 0 20 20" fill="none" xmlns="http://www.w3.org/2000/svg" xmlns:xlink="http://www.w3.org/1999/xlink">
	<desc>
			Created with Pixso.
	</desc>
	<defs>
		<clipPath id="clip488_44818">
			<rect id="icon-component" width="20.000000" height="20.000000" fill="white" fill-opacity="0"/>
		</clipPath>
	</defs>
	<rect id="icon" width="20.000000" height="20.000000" fill="#FFFFFF" fill-opacity="0"/>
	<mask id="mask488_44818" mask-type="alpha" maskUnits="userSpaceOnUse" x="0.000000" y="0.000000" width="20.000000" height="20.000000">
		<g clip-path="url(#clip488_44818)">
			<path id="path" d="M4.75 15.75C4.75 13.67 6.42 12 8.5 12L11.5 12C13.57 12 15.25 13.67 15.25 15.75C15.25 16.71 14.46 17.5 13.5 17.5L6.5 17.5C5.53 17.5 4.75 16.71 4.75 15.75ZM8.5 13.5C7.25 13.5 6.25 14.5 6.25 15.75C6.25 15.88 6.36 16 6.5 16L13.5 16C13.63 16 13.75 15.88 13.75 15.75C13.75 14.5 12.74 13.5 11.5 13.5L8.5 13.5Z" fill="#060A0C" fill-opacity="0.956863" fill-rule="evenodd"/>
			<path id="path" d="M7.25 6.5C7.25 4.98 8.48 3.75 10 3.75C11.51 3.75 12.75 4.98 12.75 6.5L12.75 7.5C12.75 9.01 11.51 10.25 10 10.25C8.48 10.25 7.25 9.01 7.25 7.5L7.25 6.5ZM10 5.25C9.3 5.25 8.75 5.8 8.75 6.5L8.75 7.5C8.75 8.19 9.3 8.75 10 8.75C10.69 8.75 11.25 8.19 11.25 7.5L11.25 6.5C11.25 5.8 10.69 5.25 10 5.25Z" fill="#060A0C" fill-opacity="0.956863" fill-rule="evenodd"/>
		</g>
	</mask>
	<g mask="url(#mask488_44818)">
		<rect id="color" width="20.000000" height="20.000000" fill="#1549AB" fill-opacity="1.000000"/>
	</g>
</svg>
