<svg width="205.000000" height="54.000000" viewBox="0 0 205 54" fill="none" xmlns="http://www.w3.org/2000/svg">
  <g>
    <path id="path"
          d="M1.04761 39.1458C2.12793 39.8125 4.37592 40.5886 6.12195 40.5886C7.91156 40.5886 8.6427 39.9655 8.6427 39.0037C8.6427 38.0417 8.06433 37.5716 5.84912 36.8282C1.93152 35.5057 0.425598 33.3741 0.469238 31.1223C0.469238 27.5916 3.492 24.9133 8.17346 24.9133C10.3778 24.9133 12.353 25.4161 13.5206 25.9956L12.473 30.0728C11.6218 29.6029 9.99585 28.9907 8.36993 28.9907C6.94037 28.9907 6.12195 29.5699 6.12195 30.5429C6.12195 31.4392 6.86395 31.8984 9.18835 32.7181C12.7895 33.9643 14.3063 35.7789 14.3391 38.5773C14.3391 42.108 11.5563 44.7096 6.12195 44.7096C3.64478 44.7096 1.44043 44.1631 0 43.3871L1.04761 39.1458Z"
          fill="#1B171B"/>
    <path id="path"
          d="M35.0535 34.6094C35.0535 41.5506 30.1318 44.7426 25.0576 44.7426C19.514 44.7426 15.2581 41.0914 15.2581 34.959C15.2581 28.8268 19.2848 24.9133 25.374 24.9133C31.1904 24.9025 35.0535 28.9033 35.0535 34.6094ZM21.3473 34.7951C21.3473 38.0526 22.7005 40.5013 25.2213 40.5013C27.5128 40.5013 28.9752 38.2056 28.9752 34.7951C28.9752 31.9641 27.8948 29.0892 25.2213 29.0892C22.3948 29.0892 21.3473 32.0078 21.3473 34.7951Z"
          fill="#1B171B"/>
    <path id="path"
          d="M37.1619 31.3884C37.1619 29.0272 37.0854 27.0049 37.0092 25.3324L42.1271 25.3324L42.3999 27.934C43.1747 26.7317 45.2261 24.9061 48.3689 24.9061C52.2429 24.9061 55.1566 27.4641 55.1566 33.0498L55.1566 44.309L49.2639 44.309L49.2639 33.7822C49.2639 31.3336 48.4127 29.6721 46.2847 29.6721C44.6588 29.6721 43.6876 30.798 43.3056 31.8802C43.1529 32.2301 43.0655 32.8093 43.0655 33.356L43.0655 44.298L37.1837 44.298L37.1619 31.3884Z"
          fill="#1B171B"/>
    <path id="path"
          d="M69.079 44.3019L68.73 42.3999C67.4968 43.9193 65.4452 44.7281 63.2083 44.7281C59.367 44.7281 57.0864 41.9298 57.0864 38.9019C57.0864 33.9719 61.5059 31.6 68.2062 31.6436L68.2062 31.3704C68.2062 30.3647 67.6605 28.9218 64.7578 28.9218C62.8262 28.9218 60.7747 29.5776 59.5306 30.3538L58.4394 26.5497C59.7599 25.8063 62.3571 24.8773 65.8053 24.8773C72.1238 24.8773 74.1317 28.6048 74.1317 33.0646L74.1317 39.6671C74.1317 41.4927 74.2081 43.2305 74.4044 44.28L69.079 44.3019ZM68.3917 35.3383C65.2925 35.2946 62.8917 36.038 62.8917 38.3225C62.8917 39.8419 63.8957 40.5743 65.2162 40.5743C66.5912 40.5853 67.8241 39.7108 68.2716 38.3991C68.3481 38.0711 68.3917 37.7324 68.3917 37.3934L68.3917 35.3383Z"
          fill="#1B171B"/>
    <path id="path"
          d="M77.2369 31.5841C77.2369 28.7967 77.1605 26.9711 77.0842 25.3423L82.1584 25.3423L82.3549 28.8295C83.3262 26.0748 85.8033 24.9161 87.6257 24.9161C88.0403 24.9052 88.4551 24.9271 88.8697 24.9926L88.8697 30.5457C88.3459 30.4473 87.8113 30.3925 87.2873 30.3925C85.1158 30.3925 83.6426 31.5623 83.2498 33.3876C83.1735 33.825 83.1406 34.2621 83.1406 34.7104L83.1406 44.3298L77.2479 44.3298L77.2369 31.5841Z"
          fill="#1B171B"/>
    <path id="path"
          d="M127.705 39.1771C127.705 41.1118 127.749 42.828 127.858 44.3038L124.835 44.3038L124.639 41.2321C123.744 42.7405 121.692 44.73 118.364 44.73C115.418 44.73 111.893 43.1013 111.893 36.499L111.893 25.524L115.298 25.524L115.298 35.9196C115.298 39.483 116.378 41.8989 119.477 41.8989C121.758 41.8989 123.351 40.303 123.973 38.7945C124.18 38.2369 124.279 37.6467 124.279 37.0455L124.279 25.524L127.683 25.524L127.705 39.1771Z"
          fill="#1B171B"/>
    <path id="path"
          d="M131.682 44.3084C131.758 43.0295 131.834 41.1275 131.834 39.4549L131.834 16.751L135.206 16.751L135.206 28.5566C136.407 26.4579 138.655 25.1024 141.677 25.1024C146.326 25.1024 149.622 28.983 149.578 34.689C149.578 41.4008 145.355 44.7457 141.175 44.7457C138.458 44.7457 136.298 43.6962 134.901 41.2148L134.628 44.3193L131.682 44.3084ZM135.206 36.7769C135.217 37.1922 135.272 37.6077 135.359 38.023C136.014 40.3842 137.989 42.0129 140.466 42.0129C144.035 42.0129 146.163 39.1053 146.163 34.7983C146.163 31.038 144.231 27.8132 140.586 27.8132C138.262 27.8132 136.09 29.3983 135.392 32C135.315 32.3935 135.195 32.8527 135.195 33.3991L135.206 36.7769Z"
          fill="#1B171B"/>
    <path id="path"
          d="M154.235 35.5334C154.312 40.1462 157.258 42.0485 160.663 42.0485C163.107 42.0485 164.58 41.622 165.857 41.0755L166.436 43.524C165.235 44.0707 163.184 44.6829 160.194 44.6829C154.421 44.6829 150.972 40.8787 150.972 35.2164C150.972 29.5541 154.301 25.0832 159.768 25.0832C165.89 25.0832 167.516 30.4832 167.516 33.9375C167.516 34.4731 167.472 34.9977 167.407 35.5224L154.235 35.5334ZM164.231 33.0848C164.275 30.9096 163.347 27.5319 159.506 27.5319C156.058 27.5319 154.552 30.7128 154.268 33.0848L164.231 33.0848Z"
          fill="#1B171B"/>
    <path id="path"
          d="M107.858 28.9019C104.715 24.2672 98.4188 23.0646 93.7919 26.2128C89.165 29.3609 87.9645 35.6683 91.1073 40.3031C93.8464 44.3367 99.0517 45.8452 103.515 43.8995L107.432 50.2722L110.543 48.1517L106.625 41.7789C110.073 38.3464 110.597 32.9355 107.858 28.9019ZM103.471 40.4779C100.23 42.6861 95.8215 41.8444 93.6172 38.5978C91.413 35.3512 92.2531 30.9351 95.4941 28.7269C98.7352 26.5189 103.144 27.3605 105.348 30.6071C107.542 33.8536 106.701 38.27 103.471 40.4779Z"
          fill="#1B171B"/>
    <path id="path"
          d="M190.812 44.3809L188.411 44.3809C188.411 25.0109 172.458 9.25909 152.848 9.25909L152.848 6.85425C173.778 6.85425 190.812 23.6881 190.812 44.3809Z"
          fill="#4E9BCD"/>
    <path id="path"
          d="M192.476 31.4722C189.595 19.3167 179.763 9.17261 167.443 5.63092L167.988 3.70703C180.996 7.4455 191.374 18.1581 194.417 31.013L192.476 31.4722Z"
          fill="#4E9BCD"/>
    <path id="path"
          d="M194.312 20.0715C191.344 13.5894 186.28 7.927 180.06 4.14484L180.89 2.77844C187.383 6.72461 192.665 12.6382 195.764 19.4157L194.312 20.0715Z"
          fill="#4E9BCD"/>
  </g>
</svg>
