<svg width="17.000000" height="16.000000" viewBox="0 0 17 16" fill="none" xmlns="http://www.w3.org/2000/svg" xmlns:xlink="http://www.w3.org/1999/xlink">
	<desc>
			Created with Pixso.
	</desc>
	<defs>
		<clipPath id="clip718_10760">
			<rect id="users" width="16.000000" height="16.000000" transform="translate(0.000000 -0.451172) rotate(-0.347923)" fill="white" fill-opacity="0"/>
		</clipPath>
	</defs>
	<g clip-path="url(#clip718_10760)">
		<path id="Union" d="M3.68 6.54C3.39 6.25 3.16 5.93 2.99 5.58C2.98 5.55 2.96 5.51 2.94 5.47C2.93 5.43 2.91 5.4 2.9 5.36C2.76 5 2.69 4.61 2.69 4.19C2.69 3.78 2.75 3.39 2.88 3.03C2.9 2.99 2.91 2.95 2.93 2.91C2.94 2.88 2.96 2.84 2.98 2.8C3.14 2.45 3.36 2.13 3.65 1.83C3.94 1.54 4.26 1.31 4.62 1.14C4.65 1.13 4.69 1.11 4.73 1.09C4.76 1.08 4.8 1.06 4.84 1.05C5.2 0.91 5.59 0.84 6 0.84C6.42 0.84 6.81 0.9 7.17 1.04C7.21 1.05 7.25 1.06 7.28 1.08C7.32 1.09 7.36 1.11 7.39 1.13C7.75 1.29 8.07 1.51 8.37 1.8C8.66 2.09 8.89 2.41 9.05 2.77C9.07 2.8 9.09 2.84 9.1 2.88C9.12 2.91 9.13 2.95 9.15 2.99C9.29 3.35 9.35 3.74 9.36 4.15C9.36 4.57 9.29 4.96 9.16 5.32C9.15 5.36 9.13 5.4 9.12 5.43C9.1 5.47 9.09 5.51 9.07 5.55C8.91 5.9 8.69 6.22 8.4 6.52C8.1 6.81 7.78 7.04 7.43 7.2C7.4 7.22 7.36 7.24 7.32 7.25C7.28 7.27 7.25 7.28 7.21 7.3C6.85 7.43 6.46 7.5 6.04 7.51C5.63 7.51 5.24 7.45 4.88 7.31C4.84 7.3 4.8 7.28 4.76 7.27C4.73 7.25 4.69 7.24 4.65 7.22C4.3 7.06 3.98 6.84 3.68 6.54ZM11.84 1.35C11.54 1.16 11.21 1.01 10.84 0.92C10.47 0.83 10.12 1.04 10.03 1.4C9.94 1.77 10.15 2.12 10.51 2.21C10.73 2.27 10.94 2.35 11.12 2.47C11.3 2.59 11.46 2.74 11.6 2.92C11.74 3.1 11.85 3.29 11.92 3.49C11.99 3.7 12.03 3.91 12.03 4.14C12.03 4.37 12 4.59 11.93 4.79C11.86 5 11.75 5.19 11.62 5.37C11.48 5.55 11.32 5.7 11.14 5.82C10.96 5.94 10.76 6.03 10.54 6.09C10.18 6.18 9.97 6.54 10.06 6.9C10.16 7.26 10.51 7.47 10.87 7.38C11.24 7.28 11.58 7.13 11.88 6.93C12.18 6.73 12.44 6.48 12.67 6.18C12.91 5.88 13.08 5.56 13.19 5.22C13.31 4.87 13.36 4.51 13.36 4.13C13.36 3.75 13.3 3.39 13.18 3.05C13.06 2.71 12.88 2.39 12.65 2.09C12.41 1.79 12.15 1.55 11.84 1.35ZM4.62 5.6C4.82 5.79 5.03 5.94 5.27 6.03C5.5 6.13 5.76 6.18 6.04 6.17C6.32 6.17 6.57 6.12 6.8 6.02C7.04 5.93 7.25 5.78 7.45 5.58C7.64 5.38 7.79 5.16 7.88 4.93C7.98 4.7 8.03 4.44 8.02 4.16C8.02 3.88 7.97 3.63 7.87 3.39C7.78 3.16 7.63 2.95 7.43 2.75C7.23 2.55 7.01 2.41 6.78 2.31C6.55 2.22 6.29 2.17 6.01 2.17C5.73 2.18 5.48 2.23 5.24 2.32C5.01 2.42 4.8 2.57 4.6 2.77C4.4 2.97 4.26 3.18 4.16 3.42C4.07 3.65 4.02 3.91 4.02 4.19C4.03 4.47 4.08 4.72 4.17 4.95C4.27 5.19 4.42 5.4 4.62 5.6ZM1.41 12.2L1.41 13.54C1.42 13.91 1.71 14.2 2.08 14.2C2.46 14.2 2.75 13.9 2.75 13.53L2.74 12.19C2.74 11.91 2.78 11.66 2.88 11.42C2.97 11.19 3.12 10.98 3.32 10.78C3.51 10.58 3.73 10.43 3.96 10.33C4.19 10.23 4.45 10.18 4.73 10.18L7.39 10.17C7.67 10.16 7.93 10.21 8.16 10.31C8.4 10.4 8.61 10.55 8.81 10.74C9.01 10.94 9.16 11.15 9.26 11.39C9.35 11.62 9.4 11.87 9.41 12.15L9.41 13.49C9.42 13.86 9.71 14.15 10.08 14.15C10.46 14.15 10.75 13.85 10.75 13.48L10.74 12.15C10.74 11.73 10.67 11.34 10.53 10.98C10.52 10.94 10.5 10.91 10.49 10.87C10.47 10.83 10.45 10.79 10.44 10.76C10.27 10.41 10.04 10.08 9.75 9.79C9.45 9.5 9.13 9.28 8.78 9.12C8.74 9.1 8.7 9.09 8.67 9.07C8.63 9.06 8.59 9.04 8.55 9.03C8.19 8.9 7.8 8.83 7.39 8.83L4.72 8.85C4.31 8.85 3.92 8.92 3.55 9.06C3.52 9.07 3.48 9.09 3.44 9.1C3.4 9.12 3.37 9.13 3.33 9.15C2.98 9.32 2.66 9.54 2.37 9.84C2.08 10.13 1.85 10.46 1.69 10.81C1.67 10.85 1.66 10.88 1.64 10.92C1.63 10.96 1.61 11 1.6 11.04C1.47 11.4 1.4 11.79 1.41 12.2ZM11.41 9.41C11.32 9.77 11.53 10.13 11.89 10.22C12.11 10.27 12.31 10.36 12.49 10.48C12.67 10.59 12.83 10.74 12.98 10.92C13.12 11.1 13.23 11.3 13.3 11.5C13.37 11.7 13.4 11.91 13.41 12.13L13.41 13.46C13.42 13.84 13.71 14.13 14.08 14.12C14.46 14.12 14.75 13.83 14.75 13.46L14.74 12.12C14.73 11.74 14.67 11.37 14.55 11.03C14.43 10.7 14.25 10.38 14.02 10.09C13.79 9.79 13.52 9.55 13.22 9.35C12.92 9.16 12.59 9.02 12.22 8.92C11.86 8.83 11.5 9.05 11.41 9.41Z" fill="#263238" fill-opacity="1.000000" fill-rule="evenodd"/>
	</g>
</svg>
