<svg width="48.000000" height="48.000000" viewBox="0 0 48 48" fill="none" xmlns="http://www.w3.org/2000/svg" xmlns:xlink="http://www.w3.org/1999/xlink">
	<desc>
			Created with Pixso.
	</desc>
	<defs>
		<filter id="filter_126_1207_dd" x="6.375000" y="10.500000" width="35.250000" height="26.500000" filterUnits="userSpaceOnUse" color-interpolation-filters="sRGB">
			<feFlood flood-opacity="0" result="BackgroundImageFix"/>
			<feColorMatrix in="SourceAlpha" type="matrix" values="0 0 0 0 0 0 0 0 0 0 0 0 0 0 0 0 0 0 127 0" result="hardAlpha"/>
			<feOffset dx="0" dy="1"/>
			<feGaussianBlur stdDeviation="0"/>
			<feComposite in2="hardAlpha" operator="out" k2="-1" k3="1"/>
			<feColorMatrix type="matrix" values="0 0 0 0 0 0 0 0 0 0 0 0 0 0 0 0 0 0 0.25 0"/>
			<feBlend mode="normal" in2="BackgroundImageFix" result="effect_dropShadow_1"/>
			<feBlend mode="normal" in="SourceGraphic" in2="effect_dropShadow_1" result="shape"/>
		</filter>
		<clipPath id="clip126_1205">
			<rect id="Logo" rx="8.000000" width="48.000000" height="48.000000" fill="white"/>
		</clipPath>
		<radialGradient id="paint_radial_126_1206_0" cx="0.000000" cy="0.000000" r="1.000000" gradientUnits="userSpaceOnUse" gradientTransform="translate(3.69231 -3.8147e-06) rotate(50.4119) scale(62.2855 62.2855)">
			<stop stop-color="#17A1E6"/>
			<stop offset="0.541985" stop-color="#2662D9"/>
			<stop offset="1.000000" stop-color="#000399"/>
		</radialGradient>
	</defs>
	<g clip-path="url(#clip126_1205)">
		<rect id="Rectangle 3" rx="12.000000" width="48.000000" height="48.000000" fill="#2662D9"/>
		<rect id="Rectangle 3" rx="12.000000" width="48.000000" height="48.000000" fill="url(#paint_radial_126_1206_0)" fill-opacity="0.2"/>
		<g filter="url(#filter_126_1207_dd)">
			<path id="Sc" d="M10.3756 35.1533C11.6553 35.7178 13.1644 36 14.9028 36Q17.4424 36 19.3196 35.1201C20.571 34.528 21.545 33.6952 22.2415 32.6216Q22.4759 32.2584 22.6577 31.8705Q23.2862 30.5298 23.2862 28.8945Q23.2862 26.7722 22.3784 25.1616Q22.079 24.6303 21.6809 24.1548C20.6163 22.8709 19.0761 21.98 17.0602 21.4819L14.0364 20.6685C13.1304 20.4194 12.4396 19.9961 11.9639 19.3984C11.4883 18.7952 11.2505 18.062 11.2505 17.1987C11.2505 16.2469 11.5619 15.5109 12.1848 14.9907C12.8133 14.465 13.6967 14.2021 14.8348 14.2021C16.0183 14.2021 16.9328 14.4816 17.5783 15.0405C18.2295 15.5939 18.5551 16.3576 18.5551 17.3315L22.904 17.3315C22.8813 15.2453 22.1509 13.5851 20.7126 12.3511C19.2743 11.117 17.3264 10.5 14.8688 10.5Q12.4311 10.5 10.6389 11.355Q9.355 11.9615 8.48957 12.9387Q8.14695 13.3256 7.86991 13.7705C7.22438 14.8109 6.90162 16.0339 6.90162 17.4395C6.90162 19.2712 7.43956 20.8345 8.51544 22.1294C9.59699 23.4188 11.1344 24.3125 13.1276 24.8105L16.0495 25.5991C16.9781 25.826 17.6916 26.2521 18.1899 26.8774C18.6882 27.4972 18.9374 28.2249 18.9374 29.0605C18.9374 30.0622 18.5834 30.8452 17.8756 31.4097C17.1678 31.9741 16.1882 32.2563 14.9368 32.2563C13.64 32.2563 12.6123 31.9686 11.8535 31.3931C11.1004 30.8175 10.7238 30.0179 10.7238 28.9941L6.375 28.9941C6.40331 30.4219 6.75723 31.6642 7.43673 32.7212Q7.61917 33.0012 7.82944 33.2584Q8.80372 34.4501 10.3756 35.1533ZM29.326 35.1035C30.5434 35.7012 31.9647 36 33.5899 36Q37.1066 36 39.2433 34.2828Q39.305 34.2332 39.3656 34.1821C40.8039 32.9702 41.5571 31.3211 41.625 29.2349L37.2762 29.2349C37.2082 30.2088 36.8543 30.9614 36.2144 31.4927C35.5802 32.0239 34.7054 32.2896 33.5899 32.2896C32.429 32.2896 31.5117 31.9741 30.8378 31.3433Q30.6765 31.1896 30.5412 31.0157Q29.8356 30.1094 29.8356 28.6538L29.8356 23.9307Q29.8356 22.4645 30.5514 21.5734Q30.6826 21.4101 30.8378 21.2661C31.5117 20.6408 32.429 20.3281 33.5899 20.3281C34.7054 20.3281 35.5802 20.5938 36.2144 21.125C36.8543 21.6562 37.2082 22.4089 37.2762 23.3828L41.625 23.3828C41.5571 21.3021 40.8039 19.6558 39.3656 18.4438Q39.2934 18.3827 39.2196 18.3237Q37.0871 16.6177 33.5899 16.6177C31.9647 16.6177 30.5434 16.9193 29.326 17.5225C28.1085 18.1201 27.1629 18.964 26.489 20.0542C25.8208 21.1444 25.4867 22.4476 25.4867 23.9639L25.4867 28.6538Q25.4867 30.8747 26.4637 32.5131Q26.4763 32.5342 26.489 32.5552C27.1629 33.6509 28.1085 34.5003 29.326 35.1035Z" fill-rule="evenodd" fill="#FFFFFF"/>
		</g>
	</g>
</svg>
